<?xml version="1.0" encoding="UTF-8" standalone="no"?>
<svg
  xmlns="http://www.w3.org/2000/svg"
  width="105mm"
  height="31mm"
  viewBox="0 0 105 31"
  version="1.1"
  id="svg8">
  <g
    id="layer1">
    <g
      id="g3701"
      transform="translate(-28.998745,-49.308415)">
      <g
        aria-label="NULL"
        style="font-style:normal;font-variant:normal;font-weight:500;font-stretch:normal;font-size:50.79999924px;line-height:1.25;font-family:'IBM 3270 Semi-Narrow';-inkscape-font-specification:'IBM 3270 Semi-Narrow Medium';text-align:start;letter-spacing:0px;word-spacing:0px;text-anchor:start;fill:#000000;fill-opacity:1;stroke:none;stroke-width:0.26458332"
        id="text3690">
        <path
          d="m 33.737245,78.257615 h 3.0988 v -23.2664 l 15.494,15.6464 v 7.62 h 3.048 V 50.470016 h -3.048 v 15.493999 l -15.494,-15.493999 h -3.0988 z"
          id="path3703"/>
        <path
          d="m 58.841969,50.470016 v 23.266399 c 0,0.508 0.254,0.9144 0.4064,1.0668 l 2.9972,2.9972 c 0.3556,0.3556 0.8128,0.4572 1.0668,0.4572 h 12.5984 c 0.508,0 0.9144,-0.3048 1.1176,-0.508 l 2.9464,-3.0988 c 0.3556,-0.3556 0.4064,-0.8128 0.4064,-1.016 V 50.470016 h -3.048 v 22.555199 l -2.0828,2.1844 h -11.2776 l -2.1844,-2.1336 V 50.470016 Z"
          id="path3705"/>
        <path
          d="m 83.895894,50.470016 v 27.838399 h 21.488396 v -3.048 H 86.994694 V 50.470016 Z"
          id="path3707"/>
        <path
          d="m 108.89901,50.470016 v 27.838399 h 21.4884 v -3.048 h -18.3896 V 50.470016 Z"
          id="path3709"/>
      </g>
      <path
        style="fill:#ff0000;fill-opacity:1;stroke-width:0.26458332"
        d="M 28.998745,62.203716 H 133.50113 V 65.94549 H 28.998745 Z"
        id="rect3694"/>
    </g>
  </g>
</svg>
